<svg version="1.2" xmlns="http://www.w3.org/2000/svg" viewBox="0 0 2400 1800" width="2400" height="1800">
	<title>vecteezywhite-backgroundas0420-ai</title>
	<defs>
		<linearGradient id="g1" x1="-1112.7" y1="667.3" x2="1816.5" y2="-1098.1" gradientUnits="userSpaceOnUse">
			<stop offset="0" stop-color="#e0e0e0"/>
			<stop offset="1" stop-color="#f9f9f9"/>
		</linearGradient>
		<radialGradient id="g2" cx="1491.4" cy="1384.6" r="528.9" gradientUnits="userSpaceOnUse">
			<stop offset="0" stop-color="#bcbec0"/>
			<stop offset="1" stop-color="#ffffff"/>
		</radialGradient>
		<radialGradient id="g3" cx="693.1" cy="907.3" r="688.2" gradientUnits="userSpaceOnUse">
			<stop offset="0" stop-color="#bcbec0"/>
			<stop offset="1" stop-color="#ffffff"/>
		</radialGradient>
		<radialGradient id="g4" cx="570.3" cy="1359.5" r="401.8" gradientUnits="userSpaceOnUse">
			<stop offset="0" stop-color="#bcbec0"/>
			<stop offset="1" stop-color="#ffffff"/>
		</radialGradient>
		<linearGradient id="g5" x1="2420.3" y1="636.6" x2="2401.9" y2="1803" gradientUnits="userSpaceOnUse">
			<stop offset="0" stop-color="#e0e0e0"/>
			<stop offset="1" stop-color="#ffffff"/>
		</linearGradient>
		<linearGradient id="g6" x1="-726.9" y1="911.9" x2="-249.6" y2="310.3" gradientUnits="userSpaceOnUse">
			<stop offset="0" stop-color="#e0e0e0"/>
			<stop offset="1" stop-color="#f9f9f9"/>
		</linearGradient>
		<linearGradient id="g7" x1="1865" y1="2028.8" x2="1607.8" y2="2294.7" gradientUnits="userSpaceOnUse">
			<stop offset="0" stop-color="#e0e0e0"/>
			<stop offset="1" stop-color="#ffffff"/>
		</linearGradient>
		<linearGradient id="g8" x1="1494.8" y1="2078.1" x2="1372.7" y2="2283" gradientUnits="userSpaceOnUse">
			<stop offset="0" stop-color="#e0e0e0"/>
			<stop offset="1" stop-color="#ffffff"/>
		</linearGradient>
		<linearGradient id="g9" x1="-211.1" y1="1402.6" x2="-45.5" y2="1058.2" gradientUnits="userSpaceOnUse">
			<stop offset="0" stop-color="#e0e0e0"/>
			<stop offset="1" stop-color="#f9f9f9"/>
		</linearGradient>
		<linearGradient id="g10" x1="-542.9" y1="1123.1" x2="-164.3" y2="335.9" gradientUnits="userSpaceOnUse">
			<stop offset="0" stop-color="#e0e0e0"/>
			<stop offset="1" stop-color="#f9f9f9"/>
		</linearGradient>
		<linearGradient id="g11" x1="1067.5" y1="-437.7" x2="2449.3" y2="1733.1" gradientUnits="userSpaceOnUse">
			<stop offset="0" stop-color="#e0e0e0"/>
			<stop offset="1" stop-color="#f9f9f9"/>
		</linearGradient>
		<linearGradient id="g12" x1="2424.6" y1="362.5" x2="2402.1" y2="1791.7" gradientUnits="userSpaceOnUse">
			<stop offset="0" stop-color="#e0e0e0"/>
			<stop offset="1" stop-color="#f9f9f9"/>
		</linearGradient>
		<linearGradient id="g13" x1="2414.9" y1="980" x2="2401.9" y2="1809.1" gradientUnits="userSpaceOnUse">
			<stop offset="0" stop-color="#e0e0e0"/>
			<stop offset="1" stop-color="#f9f9f9"/>
		</linearGradient>
		<radialGradient id="g14" cx="607.6" cy="899" r="553.8" gradientUnits="userSpaceOnUse">
			<stop offset="0" stop-color="#ffffff"/>
			<stop offset=".9" stop-color="#231f20"/>
		</radialGradient>
		<radialGradient id="g15" cx="1717" cy="1221.6" r="564.8" gradientUnits="userSpaceOnUse">
			<stop offset="0" stop-color="#ffffff"/>
			<stop offset=".8" stop-color="#231f20"/>
		</radialGradient>
	</defs>
	<style>
		.s0 { fill: url(#g1) } 
		.s1 { opacity: .6;mix-blend-mode: multiply;fill: url(#g2) } 
		.s2 { opacity: .6;mix-blend-mode: multiply;fill: url(#g3) } 
		.s3 { opacity: .6;mix-blend-mode: multiply;fill: url(#g4) } 
		.s4 { mix-blend-mode: multiply;fill: url(#g5) } 
		.s5 { fill: url(#g6) } 
		.s6 { mix-blend-mode: multiply;fill: url(#g7) } 
		.s7 { mix-blend-mode: multiply;fill: url(#g8) } 
		.s8 { fill: url(#g9) } 
		.s9 { mix-blend-mode: soft-light;fill: url(#g10) } 
		.s10 { mix-blend-mode: soft-light;fill: url(#g11) } 
		.s11 { mix-blend-mode: soft-light;fill: url(#g12) } 
		.s12 { mix-blend-mode: soft-light;fill: url(#g13) } 
		.s13 { mix-blend-mode: screen;fill: url(#g14) } 
		.s14 { mix-blend-mode: screen;fill: url(#g15) } 
	</style>
	<g id="BG">
		<path id="&lt;Path&gt;" class="s0" d="m2400 1799h-2400v-1800h2400z"/>
	</g>
	<g id="Objects">
		<path id="&lt;Path&gt;" class="s1" d="m1989 1686.9c-65.5 107.8-341.3 59.8-616.1-107.2c-274.8-166.9-444.5-389.6-379-497.4c65.5-107.7 341.3-59.8 616.1 107.2c274.8 166.9 444.4 389.6 379 497.4z"/>
		<path id="&lt;Path&gt;" class="s2" d="m1164.1 1531.9c-197.7 149.1-568.8-9.7-829-354.6c-260.1-345-310.8-745.5-113.1-894.6c197.7-149.1 568.8 9.7 829 354.7c260.1 344.9 310.8 745.4 113.1 894.5z"/>
		<path id="&lt;Path&gt;" class="s3" d="m894.5 1683.7c-110 110-344.4 54.1-523.5-125c-179-179-235-413.4-125-523.5c110.1-110 344.5-54 523.5 125c179.1 179.1 235.1 413.5 125 523.5z"/>
		<g id="&lt;Group&gt;">
			<path id="&lt;Path&gt;" class="s4" d="m2400 753.9v1045.1h-2400v-99.2q2162.1 0 2400-945.9z"/>
			<path id="&lt;Path&gt;" class="s5" d="m0-1h302.3c139.2 309.9 710.1 1371.9 2097.7 1660.4v139.6h-670.3c-769.7-105-1354.7-386.9-1729.7-623.7z"/>
			<path id="&lt;Path&gt;" class="s6" d="m2084.5 1799h-143.9q-1447.2-171.9-1940.6-791.4v-501.3q576.2 1003.1 2084.5 1292.7z"/>
			<path id="&lt;Path&gt;" class="s7" d="m1658.8 1799l-646.7 1.9q-717.5 0-1012.1-213.6v-335.6q792.5 496.9 1658.8 547.3z"/>
			<path id="&lt;Path&gt;" class="s8" d="m1905.7 1800.9h-176q-1035.8 0-1729.7-492.6v-340q480.3 619 1905.7 832.6z"/>
			<path id="&lt;Path&gt;" class="s9" d="m1997.3 1799q-1473.4-272.7-1997.3-1066.1v-733.9h66.2q558 1483.7 2333.8 1800z"/>
			<path id="&lt;Path&gt;" class="s10" d="m262.4-1h536.1q160.4 1130.9 1601.5 1660.4v139.6q-1509.9-312-2137.6-1800z"/>
			<path id="&lt;Path&gt;" class="s11" d="m2400 506.3v1292.7l-2047 1.9q1586.7 0 2047-1294.6z"/>
			<path id="&lt;Path&gt;" class="s12" d="m2400 1800.9h-2047q1612.9 0 2047-737.5z"/>
		</g>
		<path id="&lt;Path&gt;" class="s13" d="m1012.1 1365.6c-87.6 75.9-339.7-71.4-563.1-329.1c-223.4-257.7-333.5-528.1-245.9-604.1c87.6-75.9 339.7 71.4 563.1 329.1c223.4 257.7 333.5 528.1 245.9 604.1z"/>
		<circle id="&lt;Path&gt;" class="s14" cx="1717" cy="1221.6" r="564.8"/>
	</g>
</svg>