<?xml version="1.0" encoding="UTF-8" standalone="no"?>
<!DOCTYPE svg PUBLIC "-//W3C//DTD SVG 1.1//EN"
 "http://www.w3.org/Graphics/SVG/1.1/DTD/svg11.dtd">
<!-- Generated by graphviz version 3.0.0 (20220226.1711)
 -->
<!-- Title: dependencies Pages: 1 -->
<svg width="576pt" height="174pt"
 viewBox="0.00 0.00 576.00 173.80" xmlns="http://www.w3.org/2000/svg" xmlns:xlink="http://www.w3.org/1999/xlink">
<g id="graph0" class="graph" transform="scale(1 1) rotate(0) translate(4 169.8)">
<title>dependencies</title>
<polygon fill="white" stroke="transparent" points="-4,4 -4,-169.8 572,-169.8 572,4 -4,4"/>
<text text-anchor="middle" x="284" y="-8.2" font-family="sans-serif" font-size="14.00">dependencies</text>
<g id="clust1" class="cluster">
<title>cluster_UserModule</title>
<polygon fill="none" stroke="black" stroke-dasharray="1,5" points="8,-32.8 8,-157.8 560,-157.8 560,-32.8 8,-32.8"/>
</g>
<g id="clust3" class="cluster">
<title>cluster_UserModule_imports</title>
<polygon fill="none" stroke="black" points="344,-40.8 344,-92.8 552,-92.8 552,-40.8 344,-40.8"/>
</g>
<g id="clust6" class="cluster">
<title>cluster_UserModule_providers</title>
<polygon fill="none" stroke="black" points="16,-40.8 16,-92.8 336,-92.8 336,-40.8 16,-40.8"/>
</g>
<!-- AuthModule -->
<g id="node1" class="node">
<title>AuthModule</title>
<polygon fill="#8dd3c7" stroke="black" points="543.55,-84.8 540.55,-88.8 519.55,-88.8 516.55,-84.8 456.45,-84.8 456.45,-48.8 543.55,-48.8 543.55,-84.8"/>
<text text-anchor="middle" x="500" y="-62.6" font-family="Times,serif" font-size="14.00">AuthModule</text>
</g>
<!-- UserModule -->
<g id="node3" class="node">
<title>UserModule</title>
<polygon fill="#8dd3c7" stroke="black" points="361.99,-149.8 358.99,-153.8 337.99,-153.8 334.99,-149.8 276.01,-149.8 276.01,-113.8 361.99,-113.8 361.99,-149.8"/>
<text text-anchor="middle" x="319" y="-127.6" font-family="Times,serif" font-size="14.00">UserModule</text>
</g>
<!-- AuthModule&#45;&gt;UserModule -->
<g id="edge1" class="edge">
<title>AuthModule&#45;&gt;UserModule</title>
<path fill="none" stroke="black" d="M500,-84.91C500,-104.14 500,-131.8 500,-131.8 500,-131.8 372.35,-131.8 372.35,-131.8"/>
<polygon fill="black" stroke="black" points="372.35,-128.3 362.35,-131.8 372.35,-135.3 372.35,-128.3"/>
</g>
<!-- MailModule -->
<g id="node2" class="node">
<title>MailModule</title>
<polygon fill="#8dd3c7" stroke="black" points="437.99,-84.8 434.99,-88.8 413.99,-88.8 410.99,-84.8 352.01,-84.8 352.01,-48.8 437.99,-48.8 437.99,-84.8"/>
<text text-anchor="middle" x="395" y="-62.6" font-family="Times,serif" font-size="14.00">MailModule</text>
</g>
<!-- MailModule&#45;&gt;UserModule -->
<g id="edge2" class="edge">
<title>MailModule&#45;&gt;UserModule</title>
<path fill="none" stroke="black" d="M357,-84.91C357,-84.91 357,-103.79 357,-103.79"/>
<polygon fill="black" stroke="black" points="353.5,-103.79 357,-113.79 360.5,-103.79 353.5,-103.79"/>
</g>
<!-- UserHelperService -->
<g id="node4" class="node">
<title>UserHelperService</title>
<ellipse fill="#fdb462" stroke="black" cx="243" cy="-66.8" rx="84.5" ry="18"/>
<text text-anchor="middle" x="243" y="-62.6" font-family="Times,serif" font-size="14.00">UserHelperService</text>
</g>
<!-- UserHelperService&#45;&gt;UserModule -->
<g id="edge3" class="edge">
<title>UserHelperService&#45;&gt;UserModule</title>
<path fill="none" stroke="black" d="M301.75,-79.95C301.75,-79.95 301.75,-103.49 301.75,-103.49"/>
<polygon fill="black" stroke="black" points="298.25,-103.49 301.75,-113.49 305.25,-103.49 298.25,-103.49"/>
</g>
<!-- UserService -->
<g id="node5" class="node">
<title>UserService</title>
<ellipse fill="#fdb462" stroke="black" cx="82" cy="-66.8" rx="58.46" ry="18"/>
<text text-anchor="middle" x="82" y="-62.6" font-family="Times,serif" font-size="14.00">UserService</text>
</g>
<!-- UserService&#45;&gt;UserModule -->
<g id="edge4" class="edge">
<title>UserService&#45;&gt;UserModule</title>
<path fill="none" stroke="black" d="M82,-84.91C82,-104.14 82,-131.8 82,-131.8 82,-131.8 265.81,-131.8 265.81,-131.8"/>
<polygon fill="black" stroke="black" points="265.81,-135.3 275.81,-131.8 265.81,-128.3 265.81,-135.3"/>
</g>
</g>
</svg>
