<?xml version="1.0" encoding="UTF-8" standalone="no"?>
<!DOCTYPE svg PUBLIC "-//W3C//DTD SVG 1.1//EN"
 "http://www.w3.org/Graphics/SVG/1.1/DTD/svg11.dtd">
<!-- Generated by graphviz version 3.0.0 (20220226.1711)
 -->
<!-- Title: dependencies Pages: 1 -->
<svg width="421pt" height="247pt"
 viewBox="0.00 0.00 421.00 246.80" xmlns="http://www.w3.org/2000/svg" xmlns:xlink="http://www.w3.org/1999/xlink">
<g id="graph0" class="graph" transform="scale(1 1) rotate(0) translate(4 242.8)">
<title>dependencies</title>
<polygon fill="white" stroke="transparent" points="-4,4 -4,-242.8 417,-242.8 417,4 -4,4"/>
<text text-anchor="middle" x="206.5" y="-8.2" font-family="sans-serif" font-size="14.00">dependencies</text>
<g id="clust1" class="cluster">
<title>cluster_AuthModule</title>
<polygon fill="none" stroke="black" stroke-dasharray="1,5" points="8,-32.8 8,-230.8 405,-230.8 405,-32.8 8,-32.8"/>
</g>
<g id="clust4" class="cluster">
<title>cluster_AuthModule_exports</title>
<polygon fill="none" stroke="black" points="151,-170.8 151,-222.8 257,-222.8 257,-170.8 151,-170.8"/>
</g>
<g id="clust6" class="cluster">
<title>cluster_AuthModule_providers</title>
<polygon fill="none" stroke="black" points="16,-40.8 16,-92.8 397,-92.8 397,-40.8 16,-40.8"/>
</g>
<!-- AuthService  -->
<g id="node1" class="node">
<title>AuthService </title>
<polygon fill="#fb8072" stroke="black" points="248.98,-214.8 159.02,-214.8 159.02,-178.8 248.98,-178.8 248.98,-214.8"/>
<text text-anchor="middle" x="204" y="-192.6" font-family="Times,serif" font-size="14.00">AuthService </text>
</g>
<!-- AuthModule -->
<g id="node2" class="node">
<title>AuthModule</title>
<polygon fill="#8dd3c7" stroke="black" points="247.55,-149.8 244.55,-153.8 223.55,-153.8 220.55,-149.8 160.45,-149.8 160.45,-113.8 247.55,-113.8 247.55,-149.8"/>
<text text-anchor="middle" x="204" y="-127.6" font-family="Times,serif" font-size="14.00">AuthModule</text>
</g>
<!-- AuthModule&#45;&gt;AuthService  -->
<g id="edge1" class="edge">
<title>AuthModule&#45;&gt;AuthService </title>
<path fill="none" stroke="black" stroke-dasharray="5,2" d="M204,-149.91C204,-149.91 204,-168.79 204,-168.79"/>
<polygon fill="black" stroke="black" points="200.5,-168.79 204,-178.79 207.5,-168.79 200.5,-168.79"/>
</g>
<!-- AuthService -->
<g id="node3" class="node">
<title>AuthService</title>
<ellipse fill="#fdb462" stroke="black" cx="330" cy="-66.8" rx="59.11" ry="18"/>
<text text-anchor="middle" x="330" y="-62.6" font-family="Times,serif" font-size="14.00">AuthService</text>
</g>
<!-- AuthService&#45;&gt;AuthModule -->
<g id="edge2" class="edge">
<title>AuthService&#45;&gt;AuthModule</title>
<path fill="none" stroke="black" d="M330,-84.91C330,-104.14 330,-131.8 330,-131.8 330,-131.8 257.72,-131.8 257.72,-131.8"/>
<polygon fill="black" stroke="black" points="257.72,-128.3 247.72,-131.8 257.72,-135.3 257.72,-128.3"/>
</g>
<!-- JwtGuard -->
<g id="node4" class="node">
<title>JwtGuard</title>
<ellipse fill="#fdb462" stroke="black" cx="204" cy="-66.8" rx="48.67" ry="18"/>
<text text-anchor="middle" x="204" y="-62.6" font-family="Times,serif" font-size="14.00">JwtGuard</text>
</g>
<!-- JwtGuard&#45;&gt;AuthModule -->
<g id="edge3" class="edge">
<title>JwtGuard&#45;&gt;AuthModule</title>
<path fill="none" stroke="black" d="M204,-84.91C204,-84.91 204,-103.79 204,-103.79"/>
<polygon fill="black" stroke="black" points="200.5,-103.79 204,-113.79 207.5,-103.79 200.5,-103.79"/>
</g>
<!-- JwtStrategy -->
<g id="node5" class="node">
<title>JwtStrategy</title>
<ellipse fill="#fdb462" stroke="black" cx="81" cy="-66.8" rx="56.77" ry="18"/>
<text text-anchor="middle" x="81" y="-62.6" font-family="Times,serif" font-size="14.00">JwtStrategy</text>
</g>
<!-- JwtStrategy&#45;&gt;AuthModule -->
<g id="edge4" class="edge">
<title>JwtStrategy&#45;&gt;AuthModule</title>
<path fill="none" stroke="black" d="M81,-84.91C81,-104.14 81,-131.8 81,-131.8 81,-131.8 150.29,-131.8 150.29,-131.8"/>
<polygon fill="black" stroke="black" points="150.29,-135.3 160.29,-131.8 150.29,-128.3 150.29,-135.3"/>
</g>
</g>
</svg>
