<?xml version="1.0" encoding="UTF-8" standalone="no"?>
<!DOCTYPE svg PUBLIC "-//W3C//DTD SVG 1.1//EN"
 "http://www.w3.org/Graphics/SVG/1.1/DTD/svg11.dtd">
<!-- Generated by graphviz version 3.0.0 (20220226.1711)
 -->
<!-- Title: dependencies Pages: 1 -->
<svg width="921pt" height="318pt"
 viewBox="0.00 0.00 921.00 317.80" xmlns="http://www.w3.org/2000/svg" xmlns:xlink="http://www.w3.org/1999/xlink">
<g id="graph0" class="graph" transform="scale(1 1) rotate(0) translate(4 313.8)">
<title>dependencies</title>
<polygon fill="white" stroke="transparent" points="-4,4 -4,-313.8 917,-313.8 917,4 -4,4"/>
<text text-anchor="middle" x="456.5" y="-8.2" font-family="sans-serif" font-size="14.00">dependencies</text>
<g id="clust1" class="cluster">
<title>cluster_AppModule</title>
<polygon fill="none" stroke="black" stroke-dasharray="1,5" points="508,-176.8 508,-301.8 626,-301.8 626,-176.8 508,-176.8"/>
</g>
<g id="clust3" class="cluster">
<title>cluster_AppModule_imports</title>
<polygon fill="none" stroke="black" points="516,-184.8 516,-236.8 618,-236.8 618,-184.8 516,-184.8"/>
</g>
<g id="clust7" class="cluster">
<title>cluster_AuthModule</title>
<polygon fill="none" stroke="black" stroke-dasharray="1,5" points="8,-32.8 8,-244.8 405,-244.8 405,-32.8 8,-32.8"/>
</g>
<g id="clust10" class="cluster">
<title>cluster_AuthModule_exports</title>
<polygon fill="none" stroke="black" points="214,-184.8 214,-236.8 320,-236.8 320,-184.8 214,-184.8"/>
</g>
<g id="clust12" class="cluster">
<title>cluster_AuthModule_providers</title>
<polygon fill="none" stroke="black" points="16,-40.8 16,-92.8 397,-92.8 397,-40.8 16,-40.8"/>
</g>
<g id="clust13" class="cluster">
<title>cluster_MailModule</title>
<polygon fill="none" stroke="black" stroke-dasharray="1,5" points="757,-32.8 757,-244.8 905,-244.8 905,-32.8 757,-32.8"/>
</g>
<g id="clust16" class="cluster">
<title>cluster_MailModule_exports</title>
<polygon fill="none" stroke="black" points="772,-184.8 772,-236.8 876,-236.8 876,-184.8 772,-184.8"/>
</g>
<g id="clust18" class="cluster">
<title>cluster_MailModule_providers</title>
<polygon fill="none" stroke="black" points="765,-40.8 765,-92.8 897,-92.8 897,-40.8 765,-40.8"/>
</g>
<g id="clust19" class="cluster">
<title>cluster_UserModule</title>
<polygon fill="none" stroke="black" stroke-dasharray="1,5" points="413,-100.8 413,-168.8 749,-168.8 749,-100.8 413,-100.8"/>
</g>
<g id="clust24" class="cluster">
<title>cluster_UserModule_providers</title>
<polygon fill="none" stroke="black" points="421,-108.8 421,-160.8 741,-160.8 741,-108.8 421,-108.8"/>
</g>
<!-- UserModule -->
<g id="node1" class="node">
<title>UserModule</title>
<polygon fill="#8dd3c7" stroke="black" points="609.99,-228.8 606.99,-232.8 585.99,-232.8 582.99,-228.8 524.01,-228.8 524.01,-192.8 609.99,-192.8 609.99,-228.8"/>
<text text-anchor="middle" x="567" y="-206.6" font-family="Times,serif" font-size="14.00">UserModule</text>
</g>
<!-- AppModule -->
<g id="node2" class="node">
<title>AppModule</title>
<polygon fill="#8dd3c7" stroke="black" points="608.66,-293.8 605.66,-297.8 584.66,-297.8 581.66,-293.8 525.34,-293.8 525.34,-257.8 608.66,-257.8 608.66,-293.8"/>
<text text-anchor="middle" x="567" y="-271.6" font-family="Times,serif" font-size="14.00">AppModule</text>
</g>
<!-- UserModule&#45;&gt;AppModule -->
<g id="edge1" class="edge">
<title>UserModule&#45;&gt;AppModule</title>
<path fill="none" stroke="black" d="M567,-228.91C567,-228.91 567,-247.79 567,-247.79"/>
<polygon fill="black" stroke="black" points="563.5,-247.79 567,-257.79 570.5,-247.79 563.5,-247.79"/>
</g>
<!-- AuthService  -->
<g id="node3" class="node">
<title>AuthService </title>
<polygon fill="#fb8072" stroke="black" points="311.98,-228.8 222.02,-228.8 222.02,-192.8 311.98,-192.8 311.98,-228.8"/>
<text text-anchor="middle" x="267" y="-206.6" font-family="Times,serif" font-size="14.00">AuthService </text>
</g>
<!-- AuthModule -->
<g id="node4" class="node">
<title>AuthModule</title>
<polygon fill="#8dd3c7" stroke="black" points="310.55,-152.8 307.55,-156.8 286.55,-156.8 283.55,-152.8 223.45,-152.8 223.45,-116.8 310.55,-116.8 310.55,-152.8"/>
<text text-anchor="middle" x="267" y="-130.6" font-family="Times,serif" font-size="14.00">AuthModule</text>
</g>
<!-- AuthModule&#45;&gt;UserModule -->
<g id="edge8" class="edge">
<title>AuthModule&#45;&gt;UserModule</title>
<path fill="none" stroke="black" d="M310.72,-134.8C330.93,-134.8 350.52,-134.8 350.52,-134.8 350.52,-134.8 350.52,-210.8 350.52,-210.8 350.52,-210.8 513.97,-210.8 513.97,-210.8"/>
<polygon fill="black" stroke="black" points="513.97,-214.3 523.97,-210.8 513.97,-207.3 513.97,-214.3"/>
</g>
<!-- AuthModule&#45;&gt;AuthService  -->
<g id="edge2" class="edge">
<title>AuthModule&#45;&gt;AuthService </title>
<path fill="none" stroke="black" stroke-dasharray="5,2" d="M267,-152.81C267,-152.81 267,-182.65 267,-182.65"/>
<polygon fill="black" stroke="black" points="263.5,-182.65 267,-192.65 270.5,-182.65 263.5,-182.65"/>
</g>
<!-- AuthService -->
<g id="node5" class="node">
<title>AuthService</title>
<ellipse fill="#fdb462" stroke="black" cx="330" cy="-66.8" rx="59.11" ry="18"/>
<text text-anchor="middle" x="330" y="-62.6" font-family="Times,serif" font-size="14.00">AuthService</text>
</g>
<!-- AuthService&#45;&gt;AuthModule -->
<g id="edge3" class="edge">
<title>AuthService&#45;&gt;AuthModule</title>
<path fill="none" stroke="black" d="M290.73,-80.56C290.73,-80.56 290.73,-106.67 290.73,-106.67"/>
<polygon fill="black" stroke="black" points="287.23,-106.67 290.73,-116.67 294.23,-106.67 287.23,-106.67"/>
</g>
<!-- JwtGuard -->
<g id="node6" class="node">
<title>JwtGuard</title>
<ellipse fill="#fdb462" stroke="black" cx="204" cy="-66.8" rx="48.67" ry="18"/>
<text text-anchor="middle" x="204" y="-62.6" font-family="Times,serif" font-size="14.00">JwtGuard</text>
</g>
<!-- JwtGuard&#45;&gt;AuthModule -->
<g id="edge4" class="edge">
<title>JwtGuard&#45;&gt;AuthModule</title>
<path fill="none" stroke="black" d="M237.9,-79.91C237.9,-79.91 237.9,-106.59 237.9,-106.59"/>
<polygon fill="black" stroke="black" points="234.4,-106.59 237.9,-116.59 241.4,-106.59 234.4,-106.59"/>
</g>
<!-- JwtStrategy -->
<g id="node7" class="node">
<title>JwtStrategy</title>
<ellipse fill="#fdb462" stroke="black" cx="81" cy="-66.8" rx="56.77" ry="18"/>
<text text-anchor="middle" x="81" y="-62.6" font-family="Times,serif" font-size="14.00">JwtStrategy</text>
</g>
<!-- JwtStrategy&#45;&gt;AuthModule -->
<g id="edge5" class="edge">
<title>JwtStrategy&#45;&gt;AuthModule</title>
<path fill="none" stroke="black" d="M81,-85.02C81,-105.17 81,-134.8 81,-134.8 81,-134.8 213.39,-134.8 213.39,-134.8"/>
<polygon fill="black" stroke="black" points="213.39,-138.3 223.39,-134.8 213.39,-131.3 213.39,-138.3"/>
</g>
<!-- MailService  -->
<g id="node8" class="node">
<title>MailService </title>
<polygon fill="#fb8072" stroke="black" points="867.92,-228.8 780.08,-228.8 780.08,-192.8 867.92,-192.8 867.92,-228.8"/>
<text text-anchor="middle" x="824" y="-206.6" font-family="Times,serif" font-size="14.00">MailService </text>
</g>
<!-- MailModule -->
<g id="node9" class="node">
<title>MailModule</title>
<polygon fill="#8dd3c7" stroke="black" points="866.99,-152.8 863.99,-156.8 842.99,-156.8 839.99,-152.8 781.01,-152.8 781.01,-116.8 866.99,-116.8 866.99,-152.8"/>
<text text-anchor="middle" x="824" y="-130.6" font-family="Times,serif" font-size="14.00">MailModule</text>
</g>
<!-- MailModule&#45;&gt;UserModule -->
<g id="edge9" class="edge">
<title>MailModule&#45;&gt;UserModule</title>
<path fill="none" stroke="black" d="M780.8,-134.8C778.08,-134.8 776.4,-134.8 776.4,-134.8 776.4,-134.8 776.4,-210.8 776.4,-210.8 776.4,-210.8 620.13,-210.8 620.13,-210.8"/>
<polygon fill="black" stroke="black" points="620.13,-207.3 610.13,-210.8 620.13,-214.3 620.13,-207.3"/>
</g>
<!-- MailModule&#45;&gt;MailService  -->
<g id="edge6" class="edge">
<title>MailModule&#45;&gt;MailService </title>
<path fill="none" stroke="black" stroke-dasharray="5,2" d="M824,-152.81C824,-152.81 824,-182.65 824,-182.65"/>
<polygon fill="black" stroke="black" points="820.5,-182.65 824,-192.65 827.5,-182.65 820.5,-182.65"/>
</g>
<!-- MailService -->
<g id="node10" class="node">
<title>MailService</title>
<ellipse fill="#fdb462" stroke="black" cx="831" cy="-66.8" rx="58.46" ry="18"/>
<text text-anchor="middle" x="831" y="-62.6" font-family="Times,serif" font-size="14.00">MailService</text>
</g>
<!-- MailService&#45;&gt;MailModule -->
<g id="edge7" class="edge">
<title>MailService&#45;&gt;MailModule</title>
<path fill="none" stroke="black" d="M824,-85.02C824,-85.02 824,-106.53 824,-106.53"/>
<polygon fill="black" stroke="black" points="820.5,-106.53 824,-116.53 827.5,-106.53 820.5,-106.53"/>
</g>
<!-- UserHelperService -->
<g id="node11" class="node">
<title>UserHelperService</title>
<ellipse fill="#fdb462" stroke="black" cx="648" cy="-134.8" rx="84.5" ry="18"/>
<text text-anchor="middle" x="648" y="-130.6" font-family="Times,serif" font-size="14.00">UserHelperService</text>
</g>
<!-- UserHelperService&#45;&gt;UserModule -->
<g id="edge10" class="edge">
<title>UserHelperService&#45;&gt;UserModule</title>
<path fill="none" stroke="black" d="M586.75,-147.35C586.75,-147.35 586.75,-182.54 586.75,-182.54"/>
<polygon fill="black" stroke="black" points="583.25,-182.54 586.75,-192.54 590.25,-182.54 583.25,-182.54"/>
</g>
<!-- UserService -->
<g id="node12" class="node">
<title>UserService</title>
<ellipse fill="#fdb462" stroke="black" cx="487" cy="-134.8" rx="58.46" ry="18"/>
<text text-anchor="middle" x="487" y="-130.6" font-family="Times,serif" font-size="14.00">UserService</text>
</g>
<!-- UserService&#45;&gt;UserModule -->
<g id="edge11" class="edge">
<title>UserService&#45;&gt;UserModule</title>
<path fill="none" stroke="black" d="M534.62,-145.37C534.62,-145.37 534.62,-182.73 534.62,-182.73"/>
<polygon fill="black" stroke="black" points="531.12,-182.73 534.62,-192.73 538.12,-182.73 531.12,-182.73"/>
</g>
</g>
</svg>
